<?xml version="1.0" encoding="UTF-8"?>
<svg xmlns="http://www.w3.org/2000/svg" xmlns:xlink="http://www.w3.org/1999/xlink" width="512px" height="512px" viewBox="0 0 512 512" version="1.1">
<g id="surface1">
<path style=" stroke:none;fill-rule:nonzero;fill:rgb(100%,100%,100%);fill-opacity:1;" d="M 284.9375 512.445312 C 189.960938 512.445312 95.203125 512.445312 0.445312 512.445312 C 0.445312 341.777344 0.445312 171.113281 0.445312 0.445312 C 171.113281 0.445312 341.777344 0.445312 512.445312 0.445312 C 512.445312 171.113281 512.445312 341.777344 512.445312 512.445312 C 436.683594 512.445312 360.921875 512.445312 284.9375 512.445312 M 56.1875 131.636719 C 60.390625 137.742188 64.011719 144.179688 67.019531 150.960938 C 67.675781 152.4375 68.34375 153.90625 69.019531 155.714844 C 71.265625 161.582031 73.070312 167.578125 74.410156 173.722656 C 75.910156 180.597656 76.625 187.5625 77.042969 194.972656 C 77.042969 195.710938 77.042969 196.453125 77.054688 197.191406 C 77.136719 203.46875 76.835938 209.71875 75.71875 215.914062 C 75.210938 218.726562 74.820312 221.566406 74.222656 224.691406 C 72.8125 229.660156 71.386719 234.625 70 239.601562 C 69.34375 241.941406 68.761719 244.300781 67.980469 246.953125 C 67.628906 248.4375 67.195312 249.910156 66.933594 251.410156 C 66.203125 255.601562 65.539062 259.800781 66.074219 264.480469 C 66.15625 265.507812 66.183594 266.546875 66.332031 267.566406 C 66.808594 270.835938 67.496094 274.054688 68.9375 277.390625 C 69.238281 278.136719 69.511719 278.898438 69.847656 279.632812 C 74.804688 290.433594 83.003906 297.550781 94.335938 301.042969 C 104.90625 304.296875 115.46875 303.640625 125.84375 300.292969 C 144.332031 294.324219 158.339844 282.605469 168.5 266.175781 C 171.078125 262.011719 173.28125 257.644531 174.890625 252.683594 C 176.332031 248.421875 177.492188 244.09375 177.996094 239.246094 C 178.113281 237.632812 178.335938 236.019531 178.328125 234.40625 C 178.308594 230.59375 178.300781 226.765625 177.230469 222.691406 C 176.753906 220.910156 176.394531 219.089844 175.773438 217.359375 C 173.804688 211.878906 171.085938 206.851562 166.425781 202.726562 C 163.042969 199.496094 159.097656 197.039062 155.207031 194.492188 C 151.199219 191.867188 147.199219 189.21875 143.296875 186.441406 C 140.894531 184.738281 138.679688 182.777344 136.234375 180.695312 C 126.398438 171.808594 118.171875 161.636719 111.660156 150.085938 C 110.976562 148.871094 110.269531 147.667969 109.527344 146.140625 C 106.417969 140.21875 104.140625 133.960938 102.105469 127.609375 C 101.457031 125.589844 100.878906 123.546875 100.261719 121.148438 C 100.078125 120.28125 99.859375 119.421875 99.71875 118.546875 C 98.890625 113.453125 98.078125 108.359375 97.285156 102.847656 C 96.835938 95.886719 96.773438 88.929688 97.390625 81.964844 C 98.308594 71.648438 100.460938 61.621094 104.03125 51.894531 C 104.972656 49.324219 105.878906 46.730469 106.640625 44.101562 C 108.011719 39.359375 108.730469 34.539062 107.753906 29.613281 C 106.503906 23.300781 102.902344 19.089844 96.640625 17.308594 C 93.527344 16.421875 90.359375 16.300781 87.164062 16.683594 C 80.214844 17.511719 73.78125 19.933594 67.703125 23.273438 C 51.277344 32.300781 38.339844 45.003906 28.554688 60.929688 C 24.136719 68.117188 20.757812 75.761719 19.804688 84.261719 C 19.019531 91.242188 20.640625 97.234375 26.550781 101.800781 C 32.105469 106.097656 37.347656 110.796875 42.878906 115.570312 C 47.746094 120.4375 52.058594 125.765625 56.1875 131.636719 M 424.117188 430.859375 C 423.800781 433.632812 423.609375 436.433594 423.132812 439.179688 C 422.3125 443.882812 421.308594 448.554688 420.246094 453.550781 C 419.0625 457.125 417.875 460.695312 416.707031 464.273438 C 416.363281 465.320312 416.074219 466.390625 415.542969 467.6875 C 413.90625 472.414062 412.902344 477.242188 413.175781 482.285156 C 413.617188 490.535156 418.761719 496.464844 426.535156 497.75 C 429.953125 498.316406 433.324219 498.140625 436.699219 497.519531 C 442.734375 496.414062 448.378906 494.207031 453.71875 491.246094 C 470.785156 481.777344 484.101562 468.46875 493.917969 451.640625 C 497.503906 445.488281 500.109375 438.953125 501.316406 431.503906 C 502.089844 427.519531 501.589844 423.644531 500.246094 419.546875 C 499.113281 417.921875 498.242188 415.996094 496.796875 414.730469 C 492.96875 411.375 488.886719 408.304688 484.769531 404.851562 C 480.175781 401.011719 475.996094 396.761719 472.152344 392.179688 C 470.308594 389.984375 468.523438 387.738281 466.621094 385.21875 C 462.457031 379.355469 458.648438 373.265625 455.695312 366.707031 C 453.605469 362.0625 451.839844 357.277344 449.863281 352.203125 C 447.902344 345.785156 446.261719 339.285156 445.4375 332.621094 C 444.867188 328.023438 444.585938 323.386719 444.246094 318.359375 C 444.417969 313.691406 444.433594 309.015625 444.816406 304.367188 C 445.140625 300.394531 445.894531 296.457031 446.578125 292.171875 C 447.597656 288.246094 448.574219 284.3125 449.640625 280.402344 C 450.609375 276.851562 451.667969 273.328125 452.824219 269.472656 C 453.597656 265.480469 454.652344 261.515625 455.082031 257.488281 C 456.191406 247.179688 453.929688 237.535156 448.085938 228.953125 C 440.226562 217.410156 428.804688 212.179688 415.167969 211.570312 C 402.742188 211.011719 391.316406 214.621094 380.648438 220.808594 C 359 233.367188 344.257812 256.515625 343.046875 278.277344 C 342.535156 287.523438 344.125 296.289062 348.808594 304.363281 C 350.410156 307.125 352.324219 309.660156 354.957031 311.964844 C 356.375 313.152344 357.703125 314.46875 359.226562 315.496094 C 363.644531 318.46875 368.140625 321.320312 372.753906 324.476562 C 374.914062 326.027344 377.199219 327.4375 379.210938 329.160156 C 383.582031 332.902344 387.820312 336.804688 392.25 340.914062 C 398.355469 347.476562 403.792969 354.542969 408.324219 362.292969 C 409.472656 364.265625 410.597656 366.25 411.785156 368.550781 C 415.167969 375.53125 418.132812 382.683594 420.105469 390.195312 C 421.207031 394.402344 422.039062 398.679688 422.941406 403.300781 C 423.75 409.160156 424.460938 415.027344 424.359375 420.964844 C 424.308594 424.148438 424.289062 427.335938 424.117188 430.859375 M 253.183594 328.941406 C 247.582031 322.222656 240.625 317.472656 232.332031 314.710938 C 221.003906 310.933594 209.570312 311.125 198.148438 314.15625 C 172.804688 320.886719 150.832031 341.25 141.964844 366.03125 C 138.226562 376.484375 136.757812 387.207031 138.570312 398.191406 C 142.386719 421.34375 160.089844 436.519531 183.273438 438.03125 C 191.199219 438.550781 198.980469 437.574219 206.527344 435.128906 C 228.8125 427.914062 245.148438 413.609375 256.039062 393.023438 C 261.90625 381.925781 264.753906 370.046875 263.996094 357.445312 C 263.367188 346.957031 260.042969 337.433594 253.183594 328.941406 M 352.589844 185.414062 C 354.3125 183.894531 356.082031 182.421875 357.753906 180.847656 C 367.21875 171.898438 374.507812 161.464844 379.03125 149.203125 C 383.382812 137.40625 384.941406 125.292969 381.933594 112.957031 C 377.691406 95.566406 366.953125 83.976562 349.792969 78.683594 C 338.554688 75.214844 327.175781 75.6875 316.046875 79.113281 C 290.871094 86.867188 273.191406 103.1875 262.671875 127.207031 C 257.472656 139.082031 255.664062 151.570312 258.261719 164.386719 C 261.664062 181.1875 271.324219 193.046875 287.378906 199.296875 C 298.285156 203.542969 309.546875 203.566406 320.855469 201.007812 C 332.554688 198.363281 342.957031 193.015625 352.589844 185.414062 M 135.863281 74.148438 C 136.132812 77.246094 136.117188 80.402344 136.71875 83.433594 C 140 99.917969 149.621094 110.773438 165.910156 115.328125 C 175.996094 118.148438 186.097656 117.371094 195.914062 114.089844 C 218.367188 106.585938 234.167969 91.679688 243.515625 70.03125 C 247.949219 59.761719 249.558594 48.980469 247.53125 37.839844 C 246.132812 30.152344 242.960938 23.296875 237.632812 17.527344 C 229.75 8.992188 219.746094 5.117188 208.34375 4.515625 C 201.382812 4.148438 194.574219 5.1875 187.976562 7.378906 C 169.136719 13.648438 154.960938 25.691406 144.9375 42.691406 C 139.304688 52.238281 136.179688 62.589844 135.863281 74.148438 M 381.578125 421.382812 C 375.988281 409.222656 366.558594 401.800781 353.589844 398.8125 C 344.550781 396.730469 335.558594 397.339844 326.796875 400.066406 C 304.089844 407.128906 288.027344 421.84375 278.269531 443.386719 C 273.429688 454.074219 271.519531 465.355469 273.84375 477.019531 C 276.867188 492.207031 285.644531 502.660156 300.363281 507.761719 C 309.433594 510.90625 318.722656 510.785156 328.003906 508.660156 C 339.734375 505.972656 350.039062 500.46875 359.097656 492.605469 C 370.144531 483.015625 378.324219 471.464844 382.613281 457.382812 C 386.261719 445.417969 386.597656 433.472656 381.578125 421.382812 Z M 381.578125 421.382812 "/>
<path style=" stroke:none;fill-rule:nonzero;fill:rgb(0.392157%,51.372549%,82.352941%);fill-opacity:1;" d="M 253.285156 329.066406 C 260.042969 337.433594 263.367188 346.957031 263.996094 357.445312 C 264.753906 370.046875 261.90625 381.925781 256.039062 393.023438 C 245.148438 413.609375 228.8125 427.914062 206.527344 435.128906 C 198.980469 437.574219 191.199219 438.550781 183.273438 438.03125 C 160.089844 436.519531 142.386719 421.34375 138.570312 398.191406 C 136.757812 387.207031 138.226562 376.484375 141.964844 366.03125 C 150.832031 341.25 172.804688 320.886719 198.148438 314.15625 C 209.570312 311.125 221.003906 310.933594 232.332031 314.710938 C 240.625 317.472656 247.582031 322.222656 253.285156 329.066406 Z M 253.285156 329.066406 "/>
<path style=" stroke:none;fill-rule:nonzero;fill:rgb(0.392157%,62.745098%,69.019608%);fill-opacity:1;" d="M 352.46875 185.515625 C 342.957031 193.015625 332.554688 198.363281 320.855469 201.007812 C 309.546875 203.566406 298.285156 203.542969 287.378906 199.296875 C 271.324219 193.046875 261.664062 181.1875 258.261719 164.386719 C 255.664062 151.570312 257.472656 139.082031 262.671875 127.207031 C 273.191406 103.1875 290.871094 86.867188 316.046875 79.113281 C 327.175781 75.6875 338.554688 75.214844 349.792969 78.683594 C 366.953125 83.976562 377.691406 95.566406 381.933594 112.957031 C 384.941406 125.292969 383.382812 137.40625 379.03125 149.203125 C 374.507812 161.464844 367.21875 171.898438 357.753906 180.847656 C 356.082031 182.421875 354.3125 183.894531 352.46875 185.515625 Z M 352.46875 185.515625 "/>
<path style=" stroke:none;fill-rule:nonzero;fill:rgb(0.392157%,62.745098%,69.019608%);fill-opacity:1;" d="M 135.863281 73.9375 C 136.179688 62.589844 139.304688 52.238281 144.9375 42.691406 C 154.960938 25.691406 169.136719 13.648438 187.976562 7.378906 C 194.574219 5.1875 201.382812 4.148438 208.34375 4.515625 C 219.746094 5.117188 229.75 8.992188 237.632812 17.527344 C 242.960938 23.296875 246.132812 30.152344 247.53125 37.839844 C 249.558594 48.980469 247.949219 59.761719 243.515625 70.03125 C 234.167969 91.679688 218.367188 106.585938 195.914062 114.089844 C 186.097656 117.371094 175.996094 118.148438 165.910156 115.328125 C 149.621094 110.773438 140 99.917969 136.71875 83.433594 C 136.117188 80.402344 136.132812 77.246094 135.863281 73.9375 Z M 135.863281 73.9375 "/>
<path style=" stroke:none;fill-rule:nonzero;fill:rgb(0.392157%,51.372549%,82.352941%);fill-opacity:1;" d="M 381.648438 421.535156 C 386.597656 433.472656 386.261719 445.417969 382.613281 457.382812 C 378.324219 471.464844 370.144531 483.015625 359.097656 492.605469 C 350.039062 500.46875 339.734375 505.972656 328.003906 508.660156 C 318.722656 510.785156 309.433594 510.90625 300.363281 507.761719 C 285.644531 502.660156 276.867188 492.207031 273.84375 477.019531 C 271.519531 465.355469 273.429688 454.074219 278.269531 443.386719 C 288.027344 421.84375 304.089844 407.128906 326.796875 400.066406 C 335.558594 397.339844 344.550781 396.730469 353.589844 398.8125 C 366.558594 401.800781 375.988281 409.222656 381.648438 421.535156 Z M 381.648438 421.535156 "/>
<path style=" stroke:none;fill-rule:nonzero;fill:rgb(0.392157%,62.745098%,72.156863%);fill-opacity:1;" d="M 354.820312 311.703125 C 352.324219 309.660156 350.410156 307.125 348.808594 304.363281 C 344.125 296.289062 342.535156 287.523438 343.046875 278.277344 C 344.257812 256.515625 359 233.367188 380.648438 220.808594 C 391.316406 214.621094 402.742188 211.011719 415.167969 211.570312 C 428.804688 212.179688 440.226562 217.410156 448.085938 228.953125 C 453.929688 237.535156 456.191406 247.179688 455.082031 257.488281 C 454.652344 261.515625 453.597656 265.480469 452.585938 269.632812 C 451.980469 269.839844 451.582031 269.804688 451.253906 269.941406 C 447.300781 271.589844 443.351562 273.242188 439.417969 274.933594 C 435.550781 276.597656 431.710938 278.332031 427.839844 279.984375 C 422.476562 282.269531 417.078125 284.484375 411.71875 286.777344 C 406.011719 289.214844 400.339844 291.71875 394.640625 294.171875 C 388.605469 296.769531 382.558594 299.34375 376.515625 301.917969 C 370.945312 304.292969 365.351562 306.613281 359.808594 309.042969 C 358.089844 309.800781 356.222656 310.328125 354.820312 311.703125 Z M 354.820312 311.703125 "/>
<path style=" stroke:none;fill-rule:nonzero;fill:rgb(0.392157%,62.745098%,71.372549%);fill-opacity:1;" d="M 42.726562 115.320312 C 37.347656 110.796875 32.105469 106.097656 26.550781 101.800781 C 20.640625 97.234375 19.019531 91.242188 19.804688 84.261719 C 20.757812 75.761719 24.136719 68.117188 28.554688 60.929688 C 38.339844 45.003906 51.277344 32.300781 67.703125 23.273438 C 73.78125 19.933594 80.214844 17.511719 87.164062 16.683594 C 90.359375 16.300781 93.527344 16.421875 96.640625 17.308594 C 102.902344 19.089844 106.503906 23.300781 107.753906 29.613281 C 108.730469 34.539062 108.011719 39.359375 106.640625 44.101562 C 105.878906 46.730469 104.972656 49.324219 104.03125 51.894531 C 100.460938 61.621094 98.308594 71.648438 97.390625 81.964844 C 96.773438 88.929688 96.835938 95.886719 97.066406 103.0625 C 96.179688 103.304688 95.488281 103.230469 94.847656 103.375 C 86.007812 105.363281 77.175781 107.394531 68.335938 109.382812 C 62.65625 110.664062 56.960938 111.863281 51.285156 113.15625 C 48.414062 113.808594 45.578125 114.59375 42.726562 115.320312 Z M 42.726562 115.320312 "/>
<path style=" stroke:none;fill-rule:nonzero;fill:rgb(0.784314%,53.333333%,81.568627%);fill-opacity:1;" d="M 174.675781 252.914062 C 173.28125 257.644531 171.078125 262.011719 168.5 266.175781 C 158.339844 282.605469 144.332031 294.324219 125.84375 300.292969 C 115.46875 303.640625 104.90625 304.296875 94.335938 301.042969 C 83.003906 297.550781 74.804688 290.433594 69.847656 279.632812 C 69.511719 278.898438 69.238281 278.136719 69.03125 277.082031 C 69.578125 276.542969 70.007812 276.203125 70.492188 276.089844 C 76.304688 274.726562 82.117188 273.367188 87.941406 272.066406 C 96.5 270.160156 105.074219 268.335938 113.625 266.414062 C 120.167969 264.941406 126.675781 263.328125 133.214844 261.855469 C 139.035156 260.542969 144.886719 259.371094 150.710938 258.074219 C 156.824219 256.714844 162.917969 255.265625 169.03125 253.902344 C 170.894531 253.488281 172.792969 253.238281 174.675781 252.914062 Z M 174.675781 252.914062 "/>
<path style=" stroke:none;fill-rule:nonzero;fill:rgb(0.392157%,53.333333%,81.568627%);fill-opacity:1;" d="M 501.199219 431.867188 C 500.109375 438.953125 497.503906 445.488281 493.917969 451.640625 C 484.101562 468.46875 470.785156 481.777344 453.71875 491.246094 C 448.378906 494.207031 442.734375 496.414062 436.699219 497.519531 C 433.324219 498.140625 429.953125 498.316406 426.535156 497.75 C 418.761719 496.464844 413.617188 490.535156 413.175781 482.285156 C 412.902344 477.242188 413.90625 472.414062 415.832031 467.574219 C 416.628906 467.386719 417.175781 467.40625 417.632812 467.214844 C 421.785156 465.472656 425.921875 463.695312 430.058594 461.921875 C 434.128906 460.179688 438.195312 458.425781 442.265625 456.6875 C 445.1875 455.445312 448.125 454.242188 451.039062 452.984375 C 454.902344 451.320312 458.742188 449.59375 462.613281 447.945312 C 466.886719 446.121094 471.199219 444.378906 475.472656 442.546875 C 482.1875 439.667969 488.875 436.71875 495.601562 433.859375 C 497.421875 433.085938 499.332031 432.527344 501.199219 431.867188 Z M 501.199219 431.867188 "/>
<path style=" stroke:none;fill-rule:nonzero;fill:rgb(18.431373%,58.823529%,78.823529%);fill-opacity:1;" d="M 74.378906 224.390625 C 74.820312 221.566406 75.210938 218.726562 75.71875 215.914062 C 76.835938 209.71875 77.136719 203.46875 77.054688 197.191406 C 77.042969 196.453125 77.042969 195.710938 77.261719 194.765625 C 78.828125 194.636719 80.132812 194.542969 81.3125 193.761719 C 81.671875 193.523438 82.128906 193.285156 82.539062 193.289062 C 85.566406 193.320312 88.296875 191.542969 91.367188 191.847656 C 91.703125 191.882812 92.089844 191.6875 92.410156 191.523438 C 94.992188 190.195312 97.894531 190.285156 100.628906 189.636719 C 103.042969 189.066406 105.386719 188.210938 107.886719 188.015625 C 107.957031 188.007812 108.023438 187.957031 108.089844 187.925781 C 109.207031 187.390625 110.25 186.648438 111.640625 187.25 C 111.972656 187.390625 112.578125 186.953125 113.039062 186.746094 C 113.4375 186.566406 113.796875 186.210938 114.203125 186.15625 C 116.3125 185.878906 118.390625 185.082031 120.421875 184.933594 C 124.496094 184.636719 128.007812 182.160156 132.132812 182.335938 C 132.707031 182.359375 133.320312 182.261719 133.863281 182.066406 C 134.726562 181.753906 135.542969 181.316406 136.378906 180.929688 C 138.679688 182.777344 140.894531 184.738281 143.296875 186.441406 C 147.199219 189.21875 151.199219 191.867188 155.207031 194.492188 C 159.097656 197.039062 163.042969 199.496094 166.339844 202.929688 C 164.015625 203.835938 161.8125 204.652344 159.542969 205.214844 C 156.410156 205.992188 153.226562 206.542969 150.078125 207.257812 C 148.078125 207.710938 146.121094 208.351562 144.121094 208.785156 C 140.75 209.515625 137.378906 210.28125 133.972656 210.789062 C 130.175781 211.351562 126.703125 213.132812 122.8125 213.421875 C 120.132812 213.621094 117.5 214.460938 114.855469 215.066406 C 113.929688 215.277344 113.054688 215.707031 112.125 215.90625 C 109.042969 216.5625 105.933594 217.105469 102.863281 217.796875 C 100.9375 218.230469 99.0625 218.894531 97.148438 219.386719 C 95.65625 219.773438 94.144531 220.082031 92.628906 220.375 C 89.820312 220.914062 86.988281 221.335938 84.199219 221.953125 C 80.90625 222.683594 77.652344 223.570312 74.378906 224.390625 Z M 74.378906 224.390625 "/>
<path style=" stroke:none;fill-rule:nonzero;fill:rgb(16.078431%,57.254902%,79.607843%);fill-opacity:1;" d="M 74.300781 224.542969 C 77.652344 223.570312 80.90625 222.683594 84.199219 221.953125 C 86.988281 221.335938 89.820312 220.914062 92.628906 220.375 C 94.144531 220.082031 95.65625 219.773438 97.148438 219.386719 C 99.0625 218.894531 100.9375 218.230469 102.863281 217.796875 C 105.933594 217.105469 109.042969 216.5625 112.125 215.90625 C 113.054688 215.707031 113.929688 215.277344 114.855469 215.066406 C 117.5 214.460938 120.132812 213.621094 122.8125 213.421875 C 126.703125 213.132812 130.175781 211.351562 133.972656 210.789062 C 137.378906 210.28125 140.75 209.515625 144.121094 208.785156 C 146.121094 208.351562 148.078125 207.710938 150.078125 207.257812 C 153.226562 206.542969 156.410156 205.992188 159.542969 205.214844 C 161.8125 204.652344 164.015625 203.835938 166.402344 203.066406 C 171.085938 206.851562 173.804688 211.878906 175.773438 217.359375 C 176.394531 219.089844 176.753906 220.910156 177.019531 222.871094 C 175.859375 223.144531 174.886719 223.132812 173.964844 223.347656 C 169.449219 224.394531 164.957031 225.566406 160.433594 226.578125 C 154.113281 227.984375 147.765625 229.28125 141.433594 230.644531 C 138.125 231.355469 134.820312 232.070312 131.523438 232.835938 C 129.230469 233.367188 126.964844 234.03125 124.671875 234.546875 C 118.640625 235.898438 112.597656 237.191406 106.5625 238.527344 C 103.257812 239.257812 99.964844 240.042969 96.660156 240.78125 C 91.847656 241.863281 87.039062 242.945312 82.222656 243.988281 C 78.628906 244.769531 75.027344 245.511719 71.421875 246.226562 C 70.347656 246.441406 69.242188 246.515625 68.148438 246.652344 C 68.761719 244.300781 69.34375 241.941406 70 239.601562 C 71.386719 234.625 72.8125 229.660156 74.300781 224.542969 Z M 74.300781 224.542969 "/>
<path style=" stroke:none;fill-rule:nonzero;fill:rgb(18.823529%,60.392157%,77.254902%);fill-opacity:1;" d="M 136.304688 180.8125 C 135.542969 181.316406 134.726562 181.753906 133.863281 182.066406 C 133.320312 182.261719 132.707031 182.359375 132.132812 182.335938 C 128.007812 182.160156 124.496094 184.636719 120.421875 184.933594 C 118.390625 185.082031 116.3125 185.878906 114.203125 186.15625 C 113.796875 186.210938 113.4375 186.566406 113.039062 186.746094 C 112.578125 186.953125 111.972656 187.390625 111.640625 187.25 C 110.25 186.648438 109.207031 187.390625 108.089844 187.925781 C 108.023438 187.957031 107.957031 188.007812 107.886719 188.015625 C 105.386719 188.210938 103.042969 189.066406 100.628906 189.636719 C 97.894531 190.285156 94.992188 190.195312 92.410156 191.523438 C 92.089844 191.6875 91.703125 191.882812 91.367188 191.847656 C 88.296875 191.542969 85.566406 193.320312 82.539062 193.289062 C 82.128906 193.285156 81.671875 193.523438 81.3125 193.761719 C 80.132812 194.542969 78.828125 194.636719 77.296875 194.5625 C 76.625 187.5625 75.910156 180.597656 74.410156 173.722656 C 73.070312 167.578125 71.265625 161.582031 69.195312 155.546875 C 72.296875 154.738281 75.222656 154.109375 78.144531 153.449219 C 79.066406 153.238281 79.960938 152.898438 80.882812 152.710938 C 83.617188 152.15625 86.398438 151.8125 89.082031 151.085938 C 92.683594 150.113281 96.234375 148.960938 99.933594 148.410156 C 100.878906 148.269531 101.84375 148.238281 102.769531 148.039062 C 105.046875 147.550781 107.308594 146.992188 109.574219 146.460938 C 110.269531 147.667969 110.976562 148.871094 111.660156 150.085938 C 118.171875 161.636719 126.398438 171.808594 136.304688 180.8125 Z M 136.304688 180.8125 "/>
<path style=" stroke:none;fill-rule:nonzero;fill:rgb(12.54902%,56.078431%,80.392157%);fill-opacity:1;" d="M 68.066406 246.800781 C 69.242188 246.515625 70.347656 246.441406 71.421875 246.226562 C 75.027344 245.511719 78.628906 244.769531 82.222656 243.988281 C 87.039062 242.945312 91.847656 241.863281 96.660156 240.78125 C 99.964844 240.042969 103.257812 239.257812 106.5625 238.527344 C 112.597656 237.191406 118.640625 235.898438 124.671875 234.546875 C 126.964844 234.03125 129.230469 233.367188 131.523438 232.835938 C 134.820312 232.070312 138.125 231.355469 141.433594 230.644531 C 147.765625 229.28125 154.113281 227.984375 160.433594 226.578125 C 164.957031 225.566406 169.449219 224.394531 173.964844 223.347656 C 174.886719 223.132812 175.859375 223.144531 177.007812 223.054688 C 178.300781 226.765625 178.308594 230.59375 178.328125 234.40625 C 178.335938 236.019531 178.113281 237.632812 177.710938 239.398438 C 175.621094 239.351562 173.945312 239.898438 172.210938 240.320312 C 166.769531 241.636719 161.285156 242.78125 155.816406 243.980469 C 149.050781 245.460938 142.277344 246.90625 135.523438 248.421875 C 131.859375 249.242188 128.226562 250.214844 124.5625 251.039062 C 116.4375 252.867188 108.300781 254.628906 100.175781 256.449219 C 95.070312 257.59375 89.984375 258.8125 84.878906 259.957031 C 78.625 261.355469 72.359375 262.703125 66.097656 264.078125 C 65.539062 259.800781 66.203125 255.601562 66.933594 251.410156 C 67.195312 249.910156 67.628906 248.4375 68.066406 246.800781 Z M 68.066406 246.800781 "/>
<path style=" stroke:none;fill-rule:nonzero;fill:rgb(9.411765%,62.352941%,74.509804%);fill-opacity:1;" d="M 354.886719 311.835938 C 356.222656 310.328125 358.089844 309.800781 359.808594 309.042969 C 365.351562 306.613281 370.945312 304.292969 376.515625 301.917969 C 382.558594 299.34375 388.605469 296.769531 394.640625 294.171875 C 400.339844 291.71875 406.011719 289.214844 411.71875 286.777344 C 417.078125 284.484375 422.476562 282.269531 427.839844 279.984375 C 431.710938 278.332031 435.550781 276.597656 439.417969 274.933594 C 443.351562 273.242188 447.300781 271.589844 451.253906 269.941406 C 451.582031 269.804688 451.980469 269.839844 452.515625 269.792969 C 451.667969 273.328125 450.609375 276.851562 449.640625 280.402344 C 448.574219 284.3125 447.597656 288.246094 446.347656 292.335938 C 445.398438 292.667969 444.640625 292.726562 443.972656 293.007812 C 440.25 294.582031 436.546875 296.207031 432.832031 297.8125 C 427.625 300.070312 422.410156 302.320312 417.203125 304.578125 C 412.464844 306.625 407.730469 308.675781 403 310.726562 C 397.253906 313.21875 391.519531 315.730469 385.765625 318.195312 C 381.765625 319.910156 377.730469 321.546875 373.726562 323.257812 C 373.292969 323.441406 372.976562 323.894531 372.605469 324.222656 C 368.140625 321.320312 363.644531 318.46875 359.226562 315.496094 C 357.703125 314.46875 356.375 313.152344 354.886719 311.835938 Z M 354.886719 311.835938 "/>
<path style=" stroke:none;fill-rule:nonzero;fill:rgb(14.901961%,61.960784%,75.294118%);fill-opacity:1;" d="M 372.679688 324.351562 C 372.976562 323.894531 373.292969 323.441406 373.726562 323.257812 C 377.730469 321.546875 381.765625 319.910156 385.765625 318.195312 C 391.519531 315.730469 397.253906 313.21875 403 310.726562 C 407.730469 308.675781 412.464844 306.625 417.203125 304.578125 C 422.410156 302.320312 427.625 300.070312 432.832031 297.8125 C 436.546875 296.207031 440.25 294.582031 443.972656 293.007812 C 444.640625 292.726562 445.398438 292.667969 446.285156 292.503906 C 445.894531 296.457031 445.140625 300.394531 444.816406 304.367188 C 444.433594 309.015625 444.417969 313.691406 444.050781 318.566406 C 443.507812 318.886719 443.140625 318.953125 442.808594 319.101562 C 439.511719 320.589844 436.242188 322.128906 432.929688 323.578125 C 430.769531 324.519531 428.539062 325.300781 426.367188 326.222656 C 424.355469 327.074219 422.398438 328.054688 420.390625 328.914062 C 417.269531 330.242188 414.121094 331.507812 410.996094 332.820312 C 407.945312 334.101562 404.910156 335.421875 401.855469 336.699219 C 400.445312 337.289062 399 337.796875 397.585938 338.371094 C 395.753906 339.113281 393.933594 339.882812 392.109375 340.644531 C 387.820312 336.804688 383.582031 332.902344 379.210938 329.160156 C 377.199219 327.4375 374.914062 326.027344 372.679688 324.351562 Z M 372.679688 324.351562 "/>
<path style=" stroke:none;fill-rule:nonzero;fill:rgb(18.431373%,60.784314%,76.862745%);fill-opacity:1;" d="M 392.179688 340.777344 C 393.933594 339.882812 395.753906 339.113281 397.585938 338.371094 C 399 337.796875 400.445312 337.289062 401.855469 336.699219 C 404.910156 335.421875 407.945312 334.101562 410.996094 332.820312 C 414.121094 331.507812 417.269531 330.242188 420.390625 328.914062 C 422.398438 328.054688 424.355469 327.074219 426.367188 326.222656 C 428.539062 325.300781 430.769531 324.519531 432.929688 323.578125 C 436.242188 322.128906 439.511719 320.589844 442.808594 319.101562 C 443.140625 318.953125 443.507812 318.886719 444.015625 318.773438 C 444.585938 323.386719 444.867188 328.023438 445.4375 332.621094 C 446.261719 339.285156 447.902344 345.785156 449.695312 352.394531 C 448.296875 352.804688 446.941406 352.761719 445.867188 353.289062 C 443.582031 354.417969 441.410156 355.726562 438.953125 356.5625 C 436.492188 357.398438 434.476562 359.363281 431.671875 359.460938 C 431.0625 359.484375 430.367188 359.886719 429.898438 360.320312 C 428.820312 361.3125 427.507812 361.722656 426.175781 362.148438 C 424.453125 362.695312 423.003906 364.042969 421.027344 363.90625 C 420.734375 363.882812 420.425781 364.300781 420.105469 364.476562 C 417.425781 365.976562 414.601562 367.152344 411.730469 368.230469 C 410.597656 366.25 409.472656 364.265625 408.324219 362.292969 C 403.792969 354.542969 398.355469 347.476562 392.179688 340.777344 Z M 392.179688 340.777344 "/>
<path style=" stroke:none;fill-rule:nonzero;fill:rgb(18.823529%,59.215686%,78.431373%);fill-opacity:1;" d="M 411.757812 368.390625 C 414.601562 367.152344 417.425781 365.976562 420.105469 364.476562 C 420.425781 364.300781 420.734375 363.882812 421.027344 363.90625 C 423.003906 364.042969 424.453125 362.695312 426.175781 362.148438 C 427.507812 361.722656 428.820312 361.3125 429.898438 360.320312 C 430.367188 359.886719 431.0625 359.484375 431.671875 359.460938 C 434.476562 359.363281 436.492188 357.398438 438.953125 356.5625 C 441.410156 355.726562 443.582031 354.417969 445.867188 353.289062 C 446.941406 352.761719 448.296875 352.804688 449.726562 352.570312 C 451.839844 357.277344 453.605469 362.0625 455.695312 366.707031 C 458.648438 373.265625 462.457031 379.355469 466.460938 385.378906 C 464.304688 385.875 462.300781 386.207031 460.300781 386.550781 C 460.164062 386.574219 460.039062 386.683594 459.910156 386.75 C 458.28125 387.554688 456.675781 388.40625 455.023438 389.160156 C 452.816406 390.167969 450.570312 391.09375 448.34375 392.0625 C 446.867188 392.707031 445.390625 393.359375 443.914062 394.015625 C 443.457031 394.222656 443.007812 394.449219 442.558594 394.675781 C 441.777344 395.074219 441.03125 395.5625 440.214844 395.867188 C 437.609375 396.839844 434.820312 397.453125 432.402344 398.757812 C 429.679688 400.226562 426.566406 400.839844 424.066406 402.746094 C 423.8125 402.941406 423.355469 402.871094 422.992188 402.921875 C 422.039062 398.679688 421.207031 394.402344 420.105469 390.195312 C 418.132812 382.683594 415.167969 375.53125 411.757812 368.390625 Z M 411.757812 368.390625 "/>
<path style=" stroke:none;fill-rule:nonzero;fill:rgb(12.156863%,55.686275%,80.392157%);fill-opacity:1;" d="M 484.90625 405.121094 C 488.886719 408.304688 492.96875 411.375 496.796875 414.730469 C 498.242188 415.996094 499.113281 417.921875 500.085938 419.695312 C 499.082031 420.050781 498.195312 420.15625 497.394531 420.484375 C 493.976562 421.875 490.585938 423.335938 487.183594 424.761719 C 483.167969 426.449219 479.136719 428.09375 475.136719 429.824219 C 471 431.609375 466.917969 433.515625 462.773438 435.289062 C 456.394531 438.019531 449.96875 440.636719 443.59375 443.378906 C 436.269531 446.535156 428.980469 449.777344 421.667969 452.964844 C 421.277344 453.136719 420.8125 453.148438 420.382812 453.238281 C 421.308594 448.554688 422.3125 443.882812 423.132812 439.179688 C 423.609375 436.433594 423.800781 433.632812 424.363281 430.6875 C 425.382812 430.300781 426.191406 430.15625 426.933594 429.847656 C 431.671875 427.878906 436.414062 425.90625 441.125 423.871094 C 445.179688 422.125 449.226562 420.351562 453.230469 418.484375 C 456.757812 416.84375 460.476562 415.679688 463.960938 413.894531 C 467.480469 412.089844 471.234375 410.75 474.894531 409.226562 C 478.226562 407.84375 481.570312 406.488281 484.90625 405.121094 Z M 484.90625 405.121094 "/>
<path style=" stroke:none;fill-rule:nonzero;fill:rgb(16.470588%,57.254902%,79.607843%);fill-opacity:1;" d="M 484.839844 404.984375 C 481.570312 406.488281 478.226562 407.84375 474.894531 409.226562 C 471.234375 410.75 467.480469 412.089844 463.960938 413.894531 C 460.476562 415.679688 456.757812 416.84375 453.230469 418.484375 C 449.226562 420.351562 445.179688 422.125 441.125 423.871094 C 436.414062 425.90625 431.671875 427.878906 426.933594 429.847656 C 426.191406 430.15625 425.382812 430.300781 424.429688 430.519531 C 424.289062 427.335938 424.308594 424.148438 424.359375 420.964844 C 424.460938 415.027344 423.75 409.160156 422.96875 403.109375 C 423.355469 402.871094 423.8125 402.941406 424.066406 402.746094 C 426.566406 400.839844 429.679688 400.226562 432.402344 398.757812 C 434.820312 397.453125 437.609375 396.839844 440.214844 395.867188 C 441.03125 395.5625 441.777344 395.074219 442.558594 394.675781 C 443.007812 394.449219 443.457031 394.222656 443.914062 394.015625 C 445.390625 393.359375 446.867188 392.707031 448.34375 392.0625 C 450.570312 391.09375 452.816406 390.167969 455.023438 389.160156 C 456.675781 388.40625 458.28125 387.554688 459.910156 386.75 C 460.039062 386.683594 460.164062 386.574219 460.300781 386.550781 C 462.300781 386.207031 464.304688 385.875 466.507812 385.527344 C 468.523438 387.738281 470.308594 389.984375 472.152344 392.179688 C 475.996094 396.761719 480.175781 401.011719 484.839844 404.984375 Z M 484.839844 404.984375 "/>
<path style=" stroke:none;fill-rule:nonzero;fill:rgb(8.235294%,54.901961%,80.784314%);fill-opacity:1;" d="M 66.085938 264.277344 C 72.359375 262.703125 78.625 261.355469 84.878906 259.957031 C 89.984375 258.8125 95.070312 257.59375 100.175781 256.449219 C 108.300781 254.628906 116.4375 252.867188 124.5625 251.039062 C 128.226562 250.214844 131.859375 249.242188 135.523438 248.421875 C 142.277344 246.90625 149.050781 245.460938 155.816406 243.980469 C 161.285156 242.78125 166.769531 241.636719 172.210938 240.320312 C 173.945312 239.898438 175.621094 239.351562 177.644531 239.570312 C 177.492188 244.09375 176.332031 248.421875 174.785156 252.800781 C 172.792969 253.238281 170.894531 253.488281 169.03125 253.902344 C 162.917969 255.265625 156.824219 256.714844 150.710938 258.074219 C 144.886719 259.371094 139.035156 260.542969 133.214844 261.855469 C 126.675781 263.328125 120.167969 264.941406 113.625 266.414062 C 105.074219 268.335938 96.5 270.160156 87.941406 272.066406 C 82.117188 273.367188 76.304688 274.726562 70.492188 276.089844 C 70.007812 276.203125 69.578125 276.542969 69.023438 276.917969 C 67.496094 274.054688 66.808594 270.835938 66.332031 267.566406 C 66.183594 266.546875 66.15625 265.507812 66.085938 264.277344 Z M 66.085938 264.277344 "/>
<path style=" stroke:none;fill-rule:nonzero;fill:rgb(15.294118%,61.960784%,75.686275%);fill-opacity:1;" d="M 109.550781 146.300781 C 107.308594 146.992188 105.046875 147.550781 102.769531 148.039062 C 101.84375 148.238281 100.878906 148.269531 99.933594 148.410156 C 96.234375 148.960938 92.683594 150.113281 89.082031 151.085938 C 86.398438 151.8125 83.617188 152.15625 80.882812 152.710938 C 79.960938 152.898438 79.066406 153.238281 78.144531 153.449219 C 75.222656 154.109375 72.296875 154.738281 69.1875 155.378906 C 68.34375 153.90625 67.675781 152.4375 67.019531 150.960938 C 64.011719 144.179688 60.390625 137.742188 56.285156 131.425781 C 59.183594 130.617188 61.984375 130.046875 64.773438 129.410156 C 70.371094 128.140625 75.953125 126.808594 81.554688 125.550781 C 85.0625 124.761719 88.597656 124.082031 92.117188 123.328125 C 94.839844 122.742188 97.550781 122.121094 100.269531 121.511719 C 100.878906 123.546875 101.457031 125.589844 102.105469 127.609375 C 104.140625 133.960938 106.417969 140.21875 109.550781 146.300781 Z M 109.550781 146.300781 "/>
<path style=" stroke:none;fill-rule:nonzero;fill:rgb(7.058824%,54.901961%,81.176471%);fill-opacity:1;" d="M 420.316406 453.394531 C 420.8125 453.148438 421.277344 453.136719 421.667969 452.964844 C 428.980469 449.777344 436.269531 446.535156 443.59375 443.378906 C 449.96875 440.636719 456.394531 438.019531 462.773438 435.289062 C 466.917969 433.515625 471 431.609375 475.136719 429.824219 C 479.136719 428.09375 483.167969 426.449219 487.183594 424.761719 C 490.585938 423.335938 493.976562 421.875 497.394531 420.484375 C 498.195312 420.15625 499.082031 420.050781 500.101562 419.847656 C 501.589844 423.644531 502.089844 427.519531 501.257812 431.6875 C 499.332031 432.527344 497.421875 433.085938 495.601562 433.859375 C 488.875 436.71875 482.1875 439.667969 475.472656 442.546875 C 471.199219 444.378906 466.886719 446.121094 462.613281 447.945312 C 458.742188 449.59375 454.902344 451.320312 451.039062 452.984375 C 448.125 454.242188 445.1875 455.445312 442.265625 456.6875 C 438.195312 458.425781 434.128906 460.179688 430.058594 461.921875 C 425.921875 463.695312 421.785156 465.472656 417.632812 467.214844 C 417.175781 467.40625 416.628906 467.386719 415.941406 467.457031 C 416.074219 466.390625 416.363281 465.320312 416.707031 464.273438 C 417.875 460.695312 419.0625 457.125 420.316406 453.394531 Z M 420.316406 453.394531 "/>
<path style=" stroke:none;fill-rule:nonzero;fill:rgb(9.411765%,62.352941%,74.509804%);fill-opacity:1;" d="M 100.265625 121.332031 C 97.550781 122.121094 94.839844 122.742188 92.117188 123.328125 C 88.597656 124.082031 85.0625 124.761719 81.554688 125.550781 C 75.953125 126.808594 70.371094 128.140625 64.773438 129.410156 C 61.984375 130.046875 59.183594 130.617188 56.222656 131.285156 C 52.058594 125.765625 47.746094 120.4375 42.804688 115.445312 C 45.578125 114.59375 48.414062 113.808594 51.285156 113.15625 C 56.960938 111.863281 62.65625 110.664062 68.335938 109.382812 C 77.175781 107.394531 86.007812 105.363281 94.847656 103.375 C 95.488281 103.230469 96.179688 103.304688 97.054688 103.269531 C 98.078125 108.359375 98.890625 113.453125 99.71875 118.546875 C 99.859375 119.421875 100.078125 120.28125 100.265625 121.332031 Z M 100.265625 121.332031 "/>
</g>
</svg>
